<?xml version="1.0" encoding="UTF-8"?><svg id="_レイヤー_1" xmlns="http://www.w3.org/2000/svg" viewBox="0 0 201.84 201.57"><defs><style>.cls-1{fill:#fff;}.cls-2{fill:#e44332;}</style></defs><path class="cls-2" d="m176.61,0H25.23C11.32.03.05,11.29,0,25.2v151.18c0,13.86,11.35,25.2,25.23,25.2h151.38c13.88,0,25.23-11.34,25.23-25.2V25.2c0-13.86-11.35-25.2-25.23-25.2"/><g><path class="cls-1" d="m42.78,95.48c3.53-2.06,79.31-46.1,81.04-47.12,1.73-1.01,1.83-4.11-.13-5.23-1.94-1.11-5.63-3.23-6.99-4.04-1.95-1.07-4.32-1.05-6.25.08-.97.57-65.72,38.17-67.88,39.41-2.6,1.49-5.8,1.51-8.38,0L0,58.5v17.06c8.31,4.9,29.02,17.07,34.03,19.94,2.99,1.7,5.86,1.66,8.76-.02"/><path class="cls-1" d="m42.78,127.73c3.53-2.06,79.31-46.1,81.04-47.12,1.73-1.01,1.83-4.11-.13-5.23-1.94-1.11-5.63-3.23-6.99-4.04-1.95-1.07-4.32-1.05-6.25.08-.97.57-65.72,38.17-67.88,39.41-2.6,1.49-5.8,1.51-8.38,0L0,90.75v17.06c8.31,4.9,29.02,17.07,34.03,19.94,2.99,1.7,5.86,1.66,8.76-.02"/><path class="cls-1" d="m42.78,162c3.53-2.06,79.31-46.1,81.04-47.12,1.73-1.01,1.83-4.11-.13-5.23-1.94-1.11-5.63-3.23-6.99-4.04-1.95-1.07-4.32-1.05-6.25.08-.97.57-65.72,38.17-67.88,39.41-2.6,1.49-5.8,1.51-8.38,0L0,125.02v17.06c8.31,4.9,29.02,17.07,34.03,19.94,2.99,1.7,5.86,1.66,8.76-.02"/></g></svg>